<svg xmlns="http://www.w3.org/2000/svg" version="1.1" xmlns:xlink="http://www.w3.org/1999/xlink" width="512" height="512" x="0" y="0" viewBox="0 0 30 30" style="enable-background:new 0 0 512 512" xml:space="preserve" class=""><g><path d="M26.25 7.277c.646.938 1.018 2.393 1.188 2.995a12.38 12.38 0 0 0-.594-2.135c.195.084-.318-1.51.256-.454-.611-2.25-2.617-4.352-4.461-5.338.223.206.51.466.408.505-.918-.544-.756-.588-.887-.818-.75-.305-.801.024-1.293.001-1.408-.747-1.682-.669-2.977-1.136l.061.275c-.934-.311-1.088.117-2.098.002-.061-.048.324-.174.641-.221-.902.119-.861-.178-1.744.033.219-.153.449-.254.682-.385-.736.045-1.758.43-1.443.08-1.199.535-3.332 1.287-4.527 2.408l-.037-.25c-.55.66-2.39 1.967-2.538 2.818l-.147.034c-.285.484-.47 1.032-.695 1.527-.373.636-.545.246-.492.345-.735 1.488-1.102 2.737-1.416 3.763.225.335.006 2.017.09 3.364-.367 6.655 4.672 13.114 10.18 14.604.807.291 2.006.279 3.025.307-1.205-.344-1.357-.182-2.533-.59-.846-.398-1.029-.854-1.629-1.375l.236.418c-1.176-.414-.686-.514-1.641-.816l.254-.33c-.383-.029-1.012-.643-1.182-.982l-.418.016c-.502-.617-.768-1.063-.748-1.408l-.135.24c-.154-.262-1.844-2.318-.967-1.84-.162-.148-.377-.242-.613-.67l.176-.203c-.42-.543-.775-1.24-.748-1.471.225.305.381.359.535.414-1.064-2.646-1.125-.146-1.932-2.693l.17-.014c-.129-.197-.209-.41-.314-.621l.074-.74c-.766-.887-.213-3.771-.104-5.353.078-.645.641-1.329 1.07-2.403l-.26-.045c.5-.87 2.85-3.497 3.939-3.362.527-.662-.104-.002-.207-.17 1.158-1.198 1.525-.848 2.307-1.063.844-.5-.727.195-.324-.191 1.459-.372 1.033-.846 2.936-1.035.199.113-.465.178-.633.324 1.213-.594 3.844-.458 5.553.33 1.98.926 4.209 3.666 4.295 6.24l.102.027c-.051 1.023.156 2.209-.201 3.295l.24-.515c.031.782-.227 1.163-.459 1.835l-.422.209c-.342.666.035.422-.209.95-.535.475-1.623 1.486-1.971 1.578-.254-.004.172-.299.229-.414-.715.49-.576.738-1.668 1.037l-.033-.072c-2.695 1.27-6.445-1.246-6.396-4.678-.029.219-.082.163-.141.251-.141-1.766.814-3.539 2.426-4.265 1.576-.779 3.422-.46 4.549.593-.619-.811-1.854-1.672-3.313-1.592-1.432.022-2.773.934-3.221 1.921-.732.461-.816 1.78-1.137 2.022-.432 3.159.807 4.524 2.902 6.132.166.111.189.176.178.232 2.473.924 5.029.699 7.166-1.016.547-.424 1.141-1.146 1.313-1.156-.258.391.045.188-.154.531.541-.875-.236-.355.561-1.509l.293.403c-.109-.727.902-1.607.799-2.756.232-.353.262.378.014 1.185.342-.895.09-1.039.178-1.778.096.249.221.513.283.775-.223-.866.229-1.46.342-1.963-.113-.049-.346.383-.398-.64.008-.444.123-.232.168-.342-.086-.051-.316-.393-.453-1.045.098-.154.268.397.406.42-.09-.519-.242-.915-.246-1.314-.404-.838-.145.112-.469-.359-.433-1.331.35-.307.403-.913z" fill="#ffffff" opacity="1" data-original="#000000" class=""></path><path d="M14.145 17.527c.277.408.578.803.967 1.113-.654-.221-1.535-1.592-1.789-1.646 1.131 2.027 4.592 3.555 6.404 2.797-.838.031-1.902.018-2.846-.332-.396-.203-.934-.625-.838-.703-.014.057-.061.107-.039.191a5.66 5.66 0 0 1-1.859-1.42z" fill="#ffffff" opacity="1" data-original="#000000" class=""></path></g></svg>